<?xml version="1.0" encoding="UTF-8"?>
<svg version="1.1" xmlns="http://www.w3.org/2000/svg" width="256" height="256">
<path d="M0 0 C84.48 0 168.96 0 256 0 C256 84.48 256 168.96 256 256 C171.52 256 87.04 256 0 256 C0 171.52 0 87.04 0 0 Z " fill="#01286C" transform="translate(0,0)"/>
<path d="M0 0 C1.47678978 0.00493217 1.47678978 0.00493217 2.9834137 0.00996399 C6.13652262 0.02571154 9.28857256 0.06969591 12.44140625 0.11328125 C14.52928807 0.12477715 16.61718005 0.13456096 18.70507812 0.14257812 C46.94762358 0.30721235 46.94762358 0.30721235 59.62890625 4.11328125 C60.53624512 4.38237305 61.44358398 4.65146484 62.37841797 4.92871094 C76.84606659 9.38149416 89.52804848 17.29650139 96.85546875 31.01953125 C97.23445312 31.81359375 97.6134375 32.60765625 98.00390625 33.42578125 C98.51050781 34.43125 98.51050781 34.43125 99.02734375 35.45703125 C103.51130151 46.1527103 101.89684791 60.80293639 98.00390625 71.42578125 C93.13810979 83.06552963 84.46835433 91.42083802 73.00390625 96.42578125 C69.37037164 97.87016768 65.71816331 99.20445881 62.00390625 100.42578125 C62.27847656 100.96871826 62.55304688 101.51165527 62.8359375 102.07104492 C63.66621513 103.74496377 64.4279781 105.45362721 65.140625 107.1809082 C67.08008452 110.83357731 68.68436292 112.91092896 72.00390625 115.42578125 C79.37840376 117.44703517 87.4497786 116.7723521 95.00390625 116.61328125 C102.26390625 116.55140625 109.52390625 116.48953125 117.00390625 116.42578125 C117.00390625 93.65578125 117.00390625 70.88578125 117.00390625 47.42578125 C126.84203125 47.33296875 126.84203125 47.33296875 136.87890625 47.23828125 C138.94897949 47.21096924 141.01905273 47.18365723 143.15185547 47.15551758 C144.78742895 47.14675811 146.42300895 47.1391129 148.05859375 47.1328125 C149.33875366 47.10979065 149.33875366 47.10979065 150.64477539 47.08630371 C153.10498047 47.08520508 153.10498047 47.08520508 157.00390625 47.42578125 C159.05689565 50.50526535 159.25312244 51.11312757 159.24441528 54.58293152 C159.24853928 55.85124062 159.24853928 55.85124062 159.25274658 57.14517212 C159.24196075 58.53160416 159.24196075 58.53160416 159.23095703 59.94604492 C159.23124908 60.92184006 159.23154114 61.89763519 159.23184204 62.90299988 C159.23044697 66.13333989 159.21487733 69.3634502 159.19921875 72.59375 C159.19548925 74.83148574 159.19264198 77.06922311 159.19064331 79.30696106 C159.18300189 85.20067848 159.16334897 91.09429755 159.14123535 96.98797607 C159.12078791 103.00043406 159.11164395 109.01290791 159.1015625 115.02539062 C159.08010361 126.82556408 159.04596148 138.62566449 159.00390625 150.42578125 C145.2258406 150.63465783 131.44815387 150.79440248 117.66882515 150.8920908 C111.26985729 150.93898599 104.87197559 151.00255514 98.47363281 151.10473633 C92.29436506 151.2027971 86.11613942 151.25639654 79.93615341 151.27967644 C77.5829923 151.29625797 75.22988586 151.32863942 72.87717056 151.37735176 C52.12253099 151.78983354 52.12253099 151.78983354 45.73388672 146.17944336 C43.73092651 143.84580994 43.73092651 143.84580994 42.00390625 141.42578125 C40.65081581 139.779063 39.29677613 138.13312386 37.94140625 136.48828125 C37.30203125 135.65683594 36.66265625 134.82539063 36.00390625 133.96875 C33.22440895 130.43466261 30.20783033 127.1413327 27.1796875 123.8203125 C24.57849467 120.95759938 22.04091173 118.04347599 19.51171875 115.1171875 C14.2538265 109.21908557 14.8206115 110.40745177 5.00390625 109.42578125 C5.00390625 122.95578125 5.00390625 136.48578125 5.00390625 150.42578125 C-8.85609375 150.42578125 -22.71609375 150.42578125 -36.99609375 150.42578125 C-37.03620256 132.49714348 -37.03620256 132.49714348 -37.04492188 124.88085938 C-37.05090995 119.67487576 -37.0580093 114.46890966 -37.0715332 109.26293945 C-37.08236334 105.06787867 -37.08837085 100.87283666 -37.09097099 96.67776299 C-37.09282501 95.07371157 -37.09644519 93.46966122 -37.10182381 91.86561775 C-37.10903594 89.6266161 -37.11008462 87.38769295 -37.10961914 85.14868164 C-37.11183975 83.87182999 -37.11406036 82.59497833 -37.11634827 81.2794342 C-36.99609375 78.42578125 -36.99609375 78.42578125 -35.99609375 77.42578125 C-33.76885904 77.31744761 -31.53818832 77.27946699 -29.30834961 77.26806641 C-28.25939011 77.26044533 -28.25939011 77.26044533 -27.1892395 77.25267029 C-25.66470036 77.2419421 -24.14014523 77.23333159 -22.61558342 77.22655106 C-20.19786705 77.21478011 -17.78033078 77.19532828 -15.36268616 77.1734314 C-8.48639996 77.11178196 -1.61012789 77.0579129 5.26635742 77.02441406 C9.46925354 77.00338634 13.67182853 76.96800883 17.87454033 76.92365646 C19.47276445 76.90954912 21.07104548 76.90078598 22.66932869 76.89760208 C34.77673592 76.87094996 44.43940912 75.66835601 54.00390625 67.42578125 C57.40702444 62.06329198 57.84802366 56.61597557 57.00390625 50.42578125 C55.67910612 45.64316948 53.53461546 42.43734345 49.44140625 39.61328125 C39.36259684 34.29901364 28.99039969 33.96081953 17.8359375 33.9140625 C16.30464777 33.8971804 14.7733716 33.87902553 13.24211121 33.85966492 C9.2490564 33.8125413 5.25605658 33.7824903 1.26281738 33.75622559 C-2.82685196 33.72622801 -6.91633245 33.67976465 -11.00585938 33.63476562 C-19.00251052 33.54916189 -26.99917963 33.48162797 -34.99609375 33.42578125 C-33.58125031 29.72085853 -32.10442211 27.04221672 -29.55859375 23.98828125 C-27.06045951 20.9512442 -24.5785294 17.90853644 -22.1640625 14.8046875 C-21.6805835 14.18327881 -21.19710449 13.56187012 -20.69897461 12.92163086 C-19.74901778 11.69838784 -18.80054913 10.47398729 -17.85375977 9.24829102 C-16.58786847 7.62499326 -15.29282732 6.02454904 -13.99609375 4.42578125 C-13.23752075 3.35299927 -13.23752075 3.35299927 -12.46362305 2.25854492 C-8.57543261 -0.62941843 -4.71531776 -0.0873826 0 0 Z " fill="#FCFDFD" transform="translate(66.99609375,52.57421875)"/>
<path d="M0 0 C5.19701222 -0.09189216 10.39120116 -0.17150632 15.58837891 -0.21972656 C17.35572872 -0.2398285 19.12301213 -0.26711472 20.89013672 -0.30175781 C23.43213285 -0.35034009 25.97324896 -0.37298226 28.515625 -0.390625 C29.69865204 -0.42159271 29.69865204 -0.42159271 30.90557861 -0.45318604 C34.32841972 -0.45458262 36.58618055 -0.26254796 39.50585938 1.58984375 C41.53187617 4.8579545 41.45556512 7.12165802 41.390625 10.953125 C41.38063477 12.16129883 41.37064453 13.36947266 41.36035156 14.61425781 C41.30572754 16.9089502 41.30572754 16.9089502 41.25 19.25 C41.1675 24.1175 41.085 28.985 41 34 C27.47 34 13.94 34 0 34 C0 22.78 0 11.56 0 0 Z " fill="#FDFDFE" transform="translate(185,53)"/>
<path d="M0 0 C0.33 0 0.66 0 1 0 C1 6.93 1 13.86 1 21 C-5.93 21 -12.86 21 -20 21 C-18.00976962 19.00976962 -16.84216785 18.43855387 -14.3125 17.375 C-6.9523691 13.77522689 -2.67901231 7.56427005 0 0 Z " fill="#000000" transform="translate(255,235)"/>
<path d="M0 0 C1.10818396 1.66227594 2.20110159 3.33623673 3.2265625 5.05078125 C7.60183783 12.1269947 12.87670454 17.46147017 21 20 C21 20.33 21 20.66 21 21 C14.07 21 7.14 21 0 21 C0 14.07 0 7.14 0 0 Z " fill="#000000" transform="translate(0,235)"/>
<path d="M0 0 C6.93 0 13.86 0 21 0 C21 6.93 21 13.86 21 21 C19.89181604 19.33772406 18.79889841 17.66376327 17.7734375 15.94921875 C13.39816217 8.8730053 8.12329546 3.53852983 0 1 C0 0.67 0 0.34 0 0 Z " fill="#000000" transform="translate(235,0)"/>
<path d="M0 0 C6.93 0 13.86 0 21 0 C19.33772406 1.10818396 17.66376327 2.20110159 15.94921875 3.2265625 C8.8730053 7.60183783 3.53852983 12.87670454 1 21 C0.67 21 0.34 21 0 21 C0 14.07 0 7.14 0 0 Z " fill="#000000" transform="translate(0,0)"/>
</svg>
